<svg xmlns="http://www.w3.org/2000/svg" viewBox="0 0 1200 700"><rect width="1200" height="700" fill="#fff"/><rect x="25" y="25" width="1150" height="650" fill="none" stroke="#111" stroke-width="2"/><text x="600" y="55" text-anchor="middle" font-family="Arial" font-size="24" font-weight="700">MAPA DE APOIO — VALPARAÍSO DE GOIÁS</text><text x="600" y="85" text-anchor="middle" font-family="Arial" font-size="14">Use o mapa online do Turbo para localização precisa. O mapa municipal oficial continua disponível em PDF.</text><g font-family="Arial" font-size="16" fill="#111"><text x="70" y="145">1 — Cruzeiro do Sul</text><text x="70" y="180">2 — Chácaras Anhanguera</text><text x="70" y="215">3 — Jardim Céu Azul</text><text x="70" y="250">4 — Jardim Oriente</text><text x="70" y="285">5 — Parque Esplanada</text><text x="70" y="320">6 — Parque Marajó</text><text x="70" y="355">7 — Parque Rio Branco</text><text x="70" y="390">8 — Valparaíso I</text><text x="70" y="425">9 — Valparaíso II</text><text x="70" y="460">10 — Vila Isabel</text><text x="70" y="495">11 — Vila Guaíra</text><text x="70" y="530">12 — Reserva do Paraíso</text><text x="70" y="565">13 — Rio das Pedras</text></g><path d="M520 130 L720 120 L900 210 L870 390 L760 520 L560 540 L420 430 L400 250 Z" fill="#f1f5f9" stroke="#64748b" stroke-width="3"/><path d="M430 300 L870 300 M620 135 L620 535 M500 200 L800 450 M760 150 L480 450" stroke="#94a3b8" stroke-width="4"/><text x="700" y="350" text-anchor="middle" font-family="Arial" font-size="28" font-weight="700" fill="#475569">REFERÊNCIA VISUAL</text><text x="700" y="385" text-anchor="middle" font-family="Arial" font-size="15" fill="#64748b">Abra o mapa municipal PDF para setores, ruas e quadras.</text></svg>